<svg width="125px" height="150px" viewBox="0 30 210 240">
    <polyline stroke="rgb(255,127,127)" points="75.595,56.318 56.696,89.580 45.735,92.226 34.774,94.872 27.970,98.652 22.679,106.589 18.143,116.417 14.741,129.646 13.985,142.119 14.363,147.789 17.009,151.568 23.435,156.860 29.860,159.884 36.664,161.018 37.798,168.199 39.310,175.759 40.821,182.562 48.759,191.256 58.586,198.437 66.902,202.217 66.146,205.997 69.926,212.423 63.878,215.446 59.342,220.738 57.830,226.408 58.208,230.565 60.098,235.101 68.792,238.503 82.399,238.503 85.045,242.283 87.690,246.818 92.226,250.976 97.896,252.110 107.723,251.354 125.110,251.354 140.229,252.110 148.545,249.842 154.214,244.929 162.530,237.369 167.821,236.613 175.381,237.369 182.563,235.479 194.280,228.298 198.815,224.518 201.839,215.068 202.217,207.509 197.682,199.571 193.524,197.304 187.098,195.036 187.854,184.830 188.610,174.625 185.586,163.286 180.673,152.702 172.735,142.875 159.884,132.670 147.411,127.378 131.158,125.866 115.661,128.134 104.699,127.378 98.274,123.220 87.312,120.574 83.533,111.881 83.911,106.589 102.432,97.140 127.756,85.801 134.560,79.375 137.961,71.060 138.339,61.610 136.071,55.185 128.890,50.271 120.952,51.783 111.503,57.452 103.188,62.744 94.872,69.170 95.628,62.366 92.226,53.295 89.958,51.783 83.155,51.027 77.863,54.051 75.595,56.318" />
    <polyline stroke="rgb(0,0,200)" points="22.679,133.426 24.946,137.583 30.616,139.851 40.065,139.095 54.429,136.827 56.318,132.670
" />
    <polyline stroke="rgb(0,0,200)" points="34.774,117.173 29.482,117.929" />
    <polyline stroke="rgb(0,0,200)" points="51.783,118.307 46.113,119.818" />
</svg>
